# Blender v2.93.0 OBJ File: 'casaedd_cristales.blend'
# www.blender.org
mtllib casaedd_cristales.mtl
o Plano.006
v 2.610000 0.000000 2.903403
v 2.610000 2.500000 2.903403
v 2.610000 0.000000 1.180000
v 2.610000 2.500000 1.180000
v 1.249731 0.000000 1.180000
v 1.249731 2.500000 1.180000
v 2.610000 0.000000 1.180000
v 2.610000 2.500000 1.180000
v -0.250000 0.000000 -0.455000
v -0.250000 2.500000 -0.455000
v -0.250000 0.000000 1.185000
v -0.250000 2.500000 1.185000
v -0.250000 0.000000 1.180000
v -0.250000 2.500000 1.180000
v 0.752786 0.000000 1.180000
v 0.752786 2.500000 1.180000
v 4.890000 0.908434 1.060000
v 4.890000 0.908434 2.614065
v 4.890000 1.450583 1.060000
v 4.890000 1.450583 2.614065
v 4.385757 0.942905 3.020000
v 4.385757 1.365843 3.020000
v 4.161818 0.942905 3.020000
v 4.161818 1.365843 3.020000
v 3.937879 0.942905 3.020000
v 3.937879 1.365843 3.020000
v 3.713939 0.942905 3.020000
v 3.713939 1.365843 3.020000
v 2.908045 0.942905 3.020000
v 3.490000 0.942905 3.020000
v 2.908045 1.365843 3.020000
v 3.490000 1.365843 3.020000
vt 1.000000 0.000000
vt 0.000000 1.000000
vt 0.000000 0.000000
vt 1.000000 1.000000
vt 0.999950 -0.015273
vt -0.007133 0.998376
vt 0.000050 -0.015272
vt 0.996392 0.998377
vt 1.000000 0.000000
vt 0.000000 1.000000
vt 0.000000 0.000000
vt 1.000000 1.000000
vt 1.000000 0.000000
vt 0.000000 1.000000
vt 0.000000 0.000000
vt 1.000000 1.000000
vt -0.010923 0.994099
vt 0.988751 -0.005901
vt 0.988751 0.994099
vt -0.010923 -0.005901
vt 0.009443 0.998107
vt 0.984633 0.001620
vt 0.984635 0.998107
vt 0.009443 0.001620
vt 0.002229 0.997049
vt 1.002887 -0.002950
vt 1.002887 0.997049
vt 0.002229 -0.002951
vt 1.000000 0.724201
vt 0.000000 0.000000
vt 1.000000 0.000000
vt 0.000000 0.724200
vn 0.0000 0.0000 1.0000
vn 1.0000 0.0000 -0.0000
vn -1.0000 0.0000 0.0000
vn 0.0000 0.0000 -1.0000
usemtl Material.001
s off
f 3/1/1 6/2/1 5/3/1
f 3/1/1 4/4/1 6/2/1
f 1/5/2 8/6/2 2/7/2
f 1/5/2 7/8/2 8/6/2
f 11/9/3 10/10/3 9/11/3
f 11/9/3 12/12/3 10/10/3
f 15/13/1 14/14/1 13/15/1
f 15/13/1 16/16/1 14/14/1
f 20/17/3 17/18/3 18/19/3
f 20/17/3 19/20/3 17/18/3
f 22/21/4 23/22/4 24/23/4
f 22/21/4 21/24/4 23/22/4
f 26/25/4 27/26/4 28/27/4
f 26/25/4 25/28/4 27/26/4
f 31/29/4 30/30/4 29/31/4
f 31/29/4 32/32/4 30/30/4
