# Blender v2.93.0 OBJ File: 'camastro.blend'
# www.blender.org
mtllib camastro.mtl
o base_s_Plane
v 0.500000 0.399113 -0.625000
v -0.500000 0.399113 -0.625000
v 0.500000 0.399113 1.375000
v -0.500000 0.399113 1.375000
v -0.500000 0.499113 1.375000
v 0.500000 0.499113 1.375000
v -0.500000 0.499113 -0.625000
v 0.500000 0.499113 -0.625000
v -0.500000 0.399013 1.375000
v -0.200000 -0.000887 1.375000
v -0.500000 -0.000887 1.375000
v -0.200000 0.399013 1.375000
v 0.500000 -0.000887 1.375000
v 0.200000 -0.000887 1.375000
v 0.500000 0.398113 1.375000
v 0.200000 0.398113 1.375000
v 0.500000 -0.000887 -0.625000
v -0.500000 -0.000887 -0.625000
v 0.200000 -0.000887 -0.625000
v -0.200000 -0.000887 -0.625000
v 0.500000 0.398113 -0.625000
v -0.500000 0.398113 -0.625000
v 0.200000 0.398113 -0.625000
v -0.200000 0.398113 -0.625000
v -0.200000 -0.000887 -0.224061
v -0.500000 -0.000887 -0.224061
v -0.200000 0.398113 -0.224061
v -0.500000 0.398113 -0.224061
v 0.200000 -0.000887 -0.223630
v 0.500000 -0.000887 -0.223630
v 0.200000 0.398113 -0.223630
v 0.500000 0.398113 -0.223630
v -0.200000 -0.000887 0.974392
v -0.500000 0.399013 0.974392
v -0.500000 -0.000887 0.974392
v -0.200000 0.399013 0.974392
v 0.200000 -0.000887 0.974018
v 0.500000 -0.000887 0.974018
v 0.200000 0.398113 0.974018
v 0.500000 0.398113 0.974018
vt 0.666667 0.713880
vt 0.333333 0.000000
vt 0.666667 0.000000
vt 0.733333 0.713880
vt 0.700000 0.000000
vt 0.733333 0.000000
vt 0.700000 0.713880
vt 0.666667 0.000000
vt 0.700000 0.000000
vt 0.966667 0.643163
vt 0.933333 0.286223
vt 0.966667 0.286223
vt 0.000000 0.000000
vt 0.333333 0.713880
vt 0.000000 0.713880
vt 1.000000 0.643163
vt 0.966667 0.286223
vt 1.000000 0.286223
vt 0.632600 0.857007
vt 0.732739 0.999548
vt 0.632600 0.999548
vt 0.000000 0.713880
vt 0.133300 0.856874
vt 0.000000 0.856874
vt 0.732739 0.999548
vt 0.832879 0.857007
vt 0.832879 0.999548
vt 0.466879 0.857145
vt 0.366739 0.999366
vt 0.366739 0.857145
vt 0.866333 0.284442
vt 0.966473 0.142221
vt 0.966473 0.284442
vt 0.532600 0.713880
vt 0.665600 0.857007
vt 0.532600 0.857007
vt 0.933018 0.857007
vt 0.832879 0.999228
vt 0.832879 0.857007
vt 0.998739 0.856101
vt 0.898600 0.713880
vt 0.998739 0.713880
vt 0.866333 0.142221
vt 0.966473 0.000000
vt 0.966473 0.142221
vt 0.266600 0.713880
vt 0.399600 0.857145
vt 0.266600 0.857145
vt 0.266600 0.999366
vt 0.366739 0.857145
vt 0.366739 0.999366
vt 0.733333 0.000000
vt 0.866333 0.143111
vt 0.733333 0.143111
vt 0.733333 0.143111
vt 0.866333 0.286223
vt 0.733333 0.286223
vt 0.000000 0.999985
vt 0.100000 0.856874
vt 0.100000 0.999985
vt 0.833333 0.429349
vt 0.933333 0.572461
vt 0.833333 0.572461
vt 0.399600 0.713880
vt 0.532600 0.857145
vt 0.399600 0.857145
vt 0.733333 0.572753
vt 0.833333 0.429488
vt 0.833333 0.572753
vt 0.733333 0.286223
vt 0.833333 0.429488
vt 0.733333 0.429488
vt 0.632600 1.000000
vt 0.532600 0.857007
vt 0.632600 0.857007
vt 0.133300 0.713880
vt 0.266600 0.856873
vt 0.133300 0.856873
vt 0.200000 0.856873
vt 0.100000 0.999867
vt 0.100000 0.856873
vt 0.665600 0.713880
vt 0.798600 0.857007
vt 0.665600 0.857007
vt 0.933333 0.286223
vt 0.833333 0.429349
vt 0.833333 0.286223
vt 0.798600 0.857007
vt 0.898600 0.713880
vt 0.898600 0.857007
vt 0.333333 0.713880
vt 0.700000 0.713880
vt 0.666667 0.713880
vt 0.933333 0.643163
vt 0.333333 0.000000
vt 0.966667 0.643163
vt 0.732739 0.857007
vt 0.133300 0.713880
vt 0.732739 0.857007
vt 0.466879 0.999366
vt 0.866333 0.142221
vt 0.665600 0.713880
vt 0.933018 0.999228
vt 0.898600 0.856101
vt 0.866333 0.000000
vt 0.399600 0.713880
vt 0.266600 0.857145
vt 0.866333 0.000000
vt 0.866333 0.143111
vt 0.000000 0.856874
vt 0.933333 0.429349
vt 0.532600 0.713880
vt 0.733333 0.429488
vt 0.833333 0.286223
vt 0.532600 1.000000
vt 0.266600 0.713880
vt 0.200000 0.999867
vt 0.798600 0.713880
vt 0.933333 0.429349
vt 0.798600 0.713880
vn 0.0000 1.0000 0.0000
vn -1.0000 0.0000 0.0000
vn 1.0000 0.0000 0.0000
vn 0.0000 0.0000 1.0000
vn 0.0000 -1.0000 0.0000
vn 0.0000 0.0000 -1.0000
usemtl madera
s off
f 5/1/1 8/2/1 7/3/1
f 7/4/2 4/5/2 5/6/2
f 6/7/3 1/8/3 8/9/3
f 5/10/4 3/11/4 6/12/4
f 2/13/5 3/14/5 4/15/5
f 8/16/6 2/17/6 7/18/6
f 34/19/6 33/20/6 35/21/6
f 11/22/2 34/23/2 35/24/2
f 10/25/4 9/26/4 11/27/4
f 27/28/6 26/29/6 28/30/6
f 14/31/6 15/32/6 13/33/6
f 13/34/2 40/35/2 38/36/2
f 39/37/4 38/38/4 40/39/4
f 29/40/4 32/41/4 31/42/4
f 19/43/6 21/44/6 17/45/6
f 17/46/3 32/47/3 30/48/3
f 20/49/4 22/50/4 18/51/4
f 18/52/3 28/53/3 26/54/3
f 25/55/2 24/56/2 20/57/2
f 24/58/5 28/59/5 22/60/5
f 26/61/1 20/62/1 18/63/1
f 29/64/2 23/65/2 19/66/2
f 23/67/1 32/68/1 21/69/1
f 30/70/5 19/71/5 17/72/5
f 35/73/5 10/74/5 11/75/5
f 33/76/3 12/77/3 10/78/3
f 12/79/1 34/80/1 9/81/1
f 37/82/3 16/83/3 14/84/3
f 16/85/5 40/86/5 15/87/5
f 13/88/1 37/89/1 14/90/1
f 5/1/1 6/91/1 8/2/1
f 7/4/2 2/92/2 4/5/2
f 6/7/3 3/93/3 1/8/3
f 5/10/4 4/94/4 3/11/4
f 2/13/5 1/95/5 3/14/5
f 8/16/6 1/96/6 2/17/6
f 34/19/6 36/97/6 33/20/6
f 11/22/2 9/98/2 34/23/2
f 10/25/4 12/99/4 9/26/4
f 27/28/6 25/100/6 26/29/6
f 14/31/6 16/101/6 15/32/6
f 13/34/2 15/102/2 40/35/2
f 39/37/4 37/103/4 38/38/4
f 29/40/4 30/104/4 32/41/4
f 19/43/6 23/105/6 21/44/6
f 17/46/3 21/106/3 32/47/3
f 20/49/4 24/107/4 22/50/4
f 18/52/3 22/108/3 28/53/3
f 25/55/2 27/109/2 24/56/2
f 24/58/5 27/110/5 28/59/5
f 26/61/1 25/111/1 20/62/1
f 29/64/2 31/112/2 23/65/2
f 23/67/1 31/113/1 32/68/1
f 30/70/5 29/114/5 19/71/5
f 35/73/5 33/115/5 10/74/5
f 33/76/3 36/116/3 12/77/3
f 12/79/1 36/117/1 34/80/1
f 37/82/3 39/118/3 16/83/3
f 16/85/5 39/119/5 40/86/5
f 13/88/1 38/120/1 37/89/1
o base_i_Plane.001
v 0.500000 0.499113 -1.705000
v -0.500000 0.499113 -1.705000
v -0.500000 -0.000887 -0.705000
v 0.500000 -0.000887 -0.705000
v 0.200000 -0.000887 -1.705000
v -0.200000 -0.000887 -1.705000
v -0.500000 0.499113 -0.705000
v 0.500000 0.499113 -0.705000
v -0.500000 -0.000887 -1.705000
v 0.500000 -0.000887 -1.705000
v 0.500000 0.399113 -0.705000
v -0.500000 0.399113 -0.705000
v -0.500000 0.399113 -1.705000
v 0.500000 0.399113 -1.705000
v -0.200000 -0.000887 -1.305000
v -0.500000 -0.000887 -1.305000
v 0.200000 -0.000887 -1.305000
v 0.500000 -0.000887 -1.305000
v -0.200000 -0.000887 -0.705000
v 0.200000 -0.000887 -0.705000
v -0.500000 -0.000887 -0.905000
v 0.500000 -0.000887 -0.905000
v -0.200000 -0.000887 -0.905000
v 0.200000 -0.000887 -0.905000
v -0.200000 0.398113 -1.705000
v -0.200000 0.398113 -1.305000
v -0.500000 0.398113 -1.305000
v 0.500000 0.398113 -1.705000
v 0.200000 0.398113 -1.705000
v -0.500000 0.398113 -1.705000
v 0.500000 0.398113 -1.305000
v 0.200000 0.398113 -1.305000
v -0.500000 0.398113 -0.705000
v -0.200000 0.398113 -0.705000
v 0.500000 0.398113 -0.705000
v 0.200000 0.398113 -0.705000
v -0.500000 0.398113 -0.905000
v -0.200000 0.398113 -0.905000
v 0.500000 0.398113 -0.905000
v 0.200000 0.398113 -0.905000
vt 0.400462 0.416812
vt 0.800924 0.000000
vt 0.800924 0.416812
vt 0.360416 0.583537
vt 0.240277 0.750261
vt 0.240277 0.583537
vt 0.921063 0.416812
vt 0.881016 0.000000
vt 0.921063 0.000000
vt 0.000000 0.000000
vt 0.400462 0.416812
vt 0.000000 0.416812
vt 0.881016 0.416812
vt 0.840970 0.000000
vt 0.881016 0.000000
vt 0.840970 0.416812
vt 0.800924 0.000000
vt 0.840970 0.000000
vt 0.919796 0.833624
vt 0.879750 0.416812
vt 0.919796 0.416812
vt 0.120139 0.583537
vt 0.240277 0.750261
vt 0.120139 0.750261
vt 0.879750 0.958493
vt 0.959954 0.833624
vt 0.959954 0.958493
vt 0.401021 0.750261
vt 0.320816 0.875131
vt 0.320816 0.750261
vt 0.480554 0.750261
vt 0.360416 0.583537
vt 0.480554 0.583537
vt 0.120139 0.583537
vt 0.000000 0.750261
vt 0.000000 0.583537
vt 0.320816 0.875131
vt 0.401021 1.000000
vt 0.320816 1.000000
vt 0.919796 0.416812
vt 1.000000 0.541681
vt 0.919796 0.541681
vt 0.319569 0.416812
vt 0.479353 0.583537
vt 0.319569 0.583537
vt 0.160408 0.916338
vt 0.240612 0.750261
vt 0.240612 0.916338
vt 0.600861 0.915689
vt 0.721167 0.749613
vt 0.721167 0.915689
vt 0.721167 0.915689
vt 0.841473 0.749613
vt 0.841473 0.915689
vt 0.480554 0.915689
vt 0.600861 0.749613
vt 0.600861 0.915689
vt 0.479353 0.416812
vt 0.639137 0.583537
vt 0.479353 0.583537
vt 0.721167 0.749613
vt 0.841473 0.583537
vt 0.841473 0.749613
vt 0.480554 0.749613
vt 0.600861 0.583537
vt 0.600861 0.749613
vt 0.000000 0.416812
vt 0.159784 0.583537
vt 0.000000 0.583537
vt 0.000000 0.916338
vt 0.080204 0.750261
vt 0.080204 0.916338
vt 0.600861 0.749613
vt 0.721167 0.583537
vt 0.721167 0.749613
vt 0.639137 0.582888
vt 0.759444 0.416812
vt 0.759444 0.582888
vt 0.080204 0.916338
vt 0.160408 0.750261
vt 0.160408 0.916338
vt 0.759444 0.582888
vt 0.879750 0.416812
vt 0.879750 0.582888
vt 0.159784 0.416812
vt 0.319569 0.583537
vt 0.159784 0.583537
vt 0.240612 0.916338
vt 0.320817 0.750261
vt 0.320816 0.916338
vt 0.400462 0.000000
vt 0.360416 0.750261
vt 0.881016 0.416812
vt 0.400462 0.000000
vt 0.840970 0.416812
vt 0.800924 0.416812
vt 0.879750 0.833624
vt 0.240277 0.583537
vt 0.879750 0.833624
vt 0.401021 0.875131
vt 0.360416 0.750261
vt 0.120139 0.750261
vt 0.401021 0.875131
vt 1.000000 0.416812
vt 0.479353 0.416812
vt 0.160408 0.750261
vt 0.600861 0.749613
vt 0.721167 0.749613
vt 0.480554 0.749613
vt 0.639137 0.416812
vt 0.721167 0.583537
vt 0.159784 0.416812
vt 0.000000 0.750261
vt 0.600861 0.583537
vt 0.639137 0.416812
vt 0.080204 0.750261
vt 0.759444 0.416812
vt 0.319569 0.416812
vt 0.240612 0.750261
vn 0.0000 -1.0000 0.0000
vn 0.0000 1.0000 0.0000
vn 1.0000 0.0000 0.0000
vn 0.0000 0.0000 -1.0000
vn 0.0000 0.0000 1.0000
vn -1.0000 0.0000 0.0000
usemtl madera
s off
f 54/121/7 52/122/7 53/123/7
f 49/124/8 55/125/8 46/126/8
f 48/127/9 54/128/9 41/129/9
f 47/130/8 41/131/8 42/132/8
f 41/133/10 53/134/10 42/135/10
f 47/136/11 51/137/11 48/138/11
f 42/139/12 52/140/12 47/141/12
f 58/142/7 45/143/7 50/144/7
f 62/145/8 60/146/8 44/147/8
f 61/148/7 59/149/7 43/150/7
f 70/151/7 66/152/7 67/153/7
f 69/154/8 71/155/8 68/156/8
f 76/157/7 79/158/7 75/159/7
f 74/160/8 77/161/8 73/162/8
f 50/163/9 71/164/9 58/165/9
f 43/166/12 77/167/12 61/168/12
f 59/169/11 73/170/11 43/171/11
f 60/172/10 75/173/10 44/174/10
f 61/175/10 78/176/10 63/177/10
f 55/178/12 65/179/12 46/180/12
f 62/181/11 80/182/11 64/183/11
f 56/184/10 66/185/10 55/186/10
f 49/187/9 67/188/9 56/189/9
f 64/190/9 76/191/9 60/192/9
f 45/193/10 68/194/10 50/195/10
f 58/196/11 72/197/11 57/198/11
f 44/199/12 79/200/12 62/201/12
f 46/202/11 70/203/11 49/204/11
f 57/205/12 69/206/12 45/207/12
f 63/208/9 74/209/9 59/210/9
f 54/121/7 51/211/7 52/122/7
f 49/124/8 56/212/8 55/125/8
f 48/127/9 51/213/9 54/128/9
f 47/130/8 48/214/8 41/131/8
f 41/133/10 54/215/10 53/134/10
f 47/136/11 52/216/11 51/137/11
f 42/139/12 53/217/12 52/140/12
f 58/142/7 57/218/7 45/143/7
f 62/145/8 64/219/8 60/146/8
f 61/148/7 63/220/7 59/149/7
f 70/151/7 65/221/7 66/152/7
f 69/154/8 72/222/8 71/155/8
f 76/157/7 80/223/7 79/158/7
f 74/160/8 78/224/8 77/161/8
f 50/163/9 68/225/9 71/164/9
f 43/166/12 73/226/12 77/167/12
f 59/169/11 74/227/11 73/170/11
f 60/172/10 76/228/10 75/173/10
f 61/175/10 77/229/10 78/176/10
f 55/178/12 66/230/12 65/179/12
f 62/181/11 79/231/11 80/182/11
f 56/184/10 67/153/10 66/185/10
f 49/187/9 70/232/9 67/188/9
f 64/190/9 80/233/9 76/191/9
f 45/193/10 69/234/10 68/194/10
f 58/196/11 71/235/11 72/197/11
f 44/199/12 75/236/12 79/200/12
f 46/202/11 65/237/11 70/203/11
f 57/205/12 72/238/12 69/206/12
f 63/208/9 78/239/9 74/209/9
o colchon_S_Plane.002
v 0.500000 0.499113 0.375000
v -0.500000 0.499113 0.375000
v 0.500000 0.549113 0.375000
v -0.500000 0.549113 0.375000
v 0.500000 0.499113 0.375000
v -0.500000 0.499113 0.375000
v 0.500000 0.549113 0.375000
v -0.500000 0.549113 0.375000
v 0.500000 0.998936 1.375000
v -0.500000 0.998936 1.375000
v 0.500000 1.048936 1.375000
v -0.500000 1.048936 1.375000
v -0.500000 0.499113 -0.625000
v 0.500000 0.499113 -0.625000
v -0.500000 0.549113 -0.625000
v 0.500000 0.549113 -0.625000
vt 0.478595 0.993814
vt 0.934340 0.521660
vt 0.934340 0.993814
vt 0.023930 1.000000
vt 0.047860 0.527846
vt 0.047860 1.000000
vt 0.047860 0.527846
vt 0.047860 0.527846
vt 0.478595 0.521660
vt 0.957190 0.000000
vt 0.957190 0.521660
vt 0.071789 0.527846
vt 0.095719 1.000000
vt 0.071789 1.000000
vt 0.978595 0.010555
vt 1.000000 0.527846
vt 0.978595 0.538401
vt 0.000000 0.527846
vt 0.478595 0.000000
vt 0.478595 0.527846
vt 0.978595 0.010555
vt 0.957190 0.527846
vt 0.957190 0.000000
vt 0.047860 1.000000
vt 0.071789 0.527846
vt 0.071789 1.000000
vt 0.945038 0.993814
vt 0.047860 0.527846
vt 0.478595 0.000000
vt 0.095719 0.527846
vt 1.000000 0.000000
vt 0.000000 0.000000
vt 0.978595 0.538401
vt 0.023930 0.527846
vt 0.000000 1.000000
vt 0.000000 0.527846
vt 0.478595 0.521660
vt 0.023930 0.527846
vt 0.047860 0.527846
vt 0.023930 1.000000
vn 0.0000 1.0000 -0.0000
vn -1.0000 0.0000 0.0000
vn 0.0000 0.0000 1.0000
vn 0.0000 0.8945 -0.4471
vn 0.0000 0.0000 -1.0000
vn 0.0000 -0.8945 0.4471
vn 1.0000 0.0000 -0.0000
usemtl tela
s off
f 96/240/13 84/241/13 83/242/13
f 93/243/14 84/244/14 95/245/14
f 84/244/15 87/246/15 88/247/15
f 86/248/16 89/249/16 85/250/16
f 90/251/17 91/252/17 89/253/17
f 87/254/14 89/255/14 91/256/14
f 87/257/18 92/258/18 88/259/18
f 88/260/19 90/261/19 86/262/19
f 81/263/19 96/264/19 83/265/19
f 81/266/15 83/242/15 84/241/15
f 84/244/15 83/267/15 87/246/15
f 86/248/16 90/268/16 89/249/16
f 90/251/17 92/269/17 91/252/17
f 87/254/14 85/270/14 89/255/14
f 87/257/18 91/271/18 92/258/18
f 88/260/19 92/272/19 90/261/19
f 95/273/17 94/274/17 93/275/17
f 96/240/13 95/276/13 84/241/13
f 93/243/14 82/277/14 84/244/14
f 81/263/19 94/278/19 96/264/19
f 95/273/17 96/279/17 94/274/17
o colchon_i_Plane.004
v 0.500000 0.499113 -1.705000
v -0.500000 0.499113 -1.705000
v 0.500000 0.549113 -1.705000
v -0.500000 0.549113 -1.705000
v -0.500000 0.499113 -0.705000
v 0.500000 0.499113 -0.705000
v -0.500000 0.549113 -0.705000
v 0.500000 0.549113 -0.705000
vt 0.952381 1.000000
vt 1.000000 0.000000
vt 1.000000 1.000000
vt 0.926846 0.452120
vt 0.949452 0.000000
vt 0.949452 0.452120
vt 0.904240 0.904239
vt 0.926846 0.452120
vt 0.926846 0.904239
vt 0.000000 1.000000
vt 0.952381 0.000000
vt 0.952381 1.000000
vt 0.904240 0.452120
vt 0.952381 0.000000
vt 0.926846 0.000000
vt 0.000000 0.000000
vn 0.0000 0.0000 -1.0000
vn 1.0000 0.0000 -0.0000
vn -1.0000 0.0000 0.0000
vn 0.0000 1.0000 -0.0000
vn 0.0000 0.0000 1.0000
usemtl tela
s off
f 97/280/20 100/281/20 99/282/20
f 102/283/21 99/284/21 104/285/21
f 98/286/22 103/287/22 100/288/22
f 99/289/23 103/290/23 104/291/23
f 101/292/24 104/285/24 103/287/24
f 97/280/20 98/293/20 100/281/20
f 102/283/21 97/294/21 99/284/21
f 98/286/22 101/292/22 103/287/22
f 99/289/23 100/295/23 103/290/23
f 101/292/24 102/283/24 104/285/24
